<svg width="24" height="24" viewBox="0 0 24 24" fill="none" xmlns="http://www.w3.org/2000/svg">
<g id="call">
<path id="Vector" d="M21.9901 17.1026C21.8129 18.4551 21.1506 19.6972 20.1264 20.598C19.1022 21.4988 17.7857 21.997 16.4217 22C8.46973 22 2 15.5303 2 7.57832C2.00301 6.21432 2.50123 4.89783 3.40203 3.87361C4.30283 2.84938 5.54492 2.18712 6.89736 2.00994C7.24213 1.97172 7.59011 2.04431 7.89084 2.21718C8.19157 2.39005 8.42941 2.65423 8.56988 2.97139L10.5829 7.66845C10.6873 7.91226 10.7292 8.17829 10.7047 8.44238C10.6802 8.70648 10.5902 8.96027 10.4427 9.18073L8.7802 11.7246C9.53301 13.2523 10.7734 14.4857 12.3055 15.2298L14.8193 13.5573C15.0395 13.4089 15.2939 13.319 15.5585 13.2962C15.8231 13.2734 16.0892 13.3185 16.3316 13.4271L21.0286 15.4301C21.3458 15.5706 21.6099 15.8084 21.7828 16.1092C21.9557 16.4099 22.0283 16.7579 21.9901 17.1026Z" fill="white"/>
</g>
</svg>
