<svg width="20" height="21" viewBox="0 0 20 21" fill="none" xmlns="http://www.w3.org/2000/svg">
<g clip-path="url(#clip0_1_1126)">
<mask id="mask0_1_1126" style="mask-type:alpha" maskUnits="userSpaceOnUse" x="0" y="0" width="20" height="21">
<path d="M9.58333 4.94379C8.18238 4.94379 6.81289 5.35108 5.64805 6.11414C4.4832 6.87721 3.57531 7.96178 3.03919 9.23071C2.50307 10.4996 2.3628 11.8959 2.63611 13.243C2.90942 14.5901 3.58404 15.8275 4.57466 16.7987C5.56528 17.7699 6.82741 18.4313 8.20145 18.6992C9.57548 18.9672 10.9997 18.8297 12.294 18.3041C13.5883 17.7785 14.6946 16.8884 15.4729 15.7464C16.2512 14.6044 16.6667 13.2617 16.6667 11.8882C16.6629 10.0476 15.9154 8.28337 14.5879 6.98183C13.2603 5.68029 11.4608 4.94746 9.58333 4.94379ZM9.58333 17.166C8.51861 17.166 7.4778 16.8565 6.59252 16.2765C5.70723 15.6966 5.01724 14.8723 4.60978 13.908C4.20233 12.9436 4.09573 11.8824 4.30344 10.8586C4.51116 9.8348 5.02387 8.89439 5.77674 8.15628C6.52962 7.41817 7.48883 6.91551 8.5331 6.71187C9.57736 6.50823 10.6598 6.61274 11.6434 7.01221C12.6271 7.41167 13.4679 8.08813 14.0594 8.95606C14.6509 9.82399 14.9667 10.8444 14.9667 11.8882C14.9648 13.2874 14.397 14.6288 13.3879 15.6182C12.3787 16.6075 11.0105 17.1642 9.58333 17.166ZM12.5867 8.94379C12.6657 9.02062 12.7284 9.11203 12.7712 9.21274C12.814 9.31346 12.8361 9.42149 12.8361 9.5306C12.8361 9.63971 12.814 9.74774 12.7712 9.84845C12.7284 9.94917 12.6657 10.0406 12.5867 10.1174L10.1854 12.4785C10.025 12.6337 9.80871 12.7208 9.58333 12.7208C9.35796 12.7208 9.14165 12.6337 8.98125 12.4785C8.90201 12.4011 8.83913 12.3091 8.79623 12.2078C8.75333 12.1065 8.73125 11.9979 8.73125 11.8882C8.73125 11.7786 8.75333 11.67 8.79623 11.5687C8.83913 11.4674 8.90201 11.3754 8.98125 11.298L11.3896 8.94379C11.4679 8.86631 11.5612 8.80482 11.6639 8.76285C11.7666 8.72088 11.8768 8.69928 11.9881 8.69928C12.0994 8.69928 12.2096 8.72088 12.3123 8.76285C12.4151 8.80482 12.5083 8.86631 12.5867 8.94379ZM7.03334 2.99935C7.03334 2.77834 7.12289 2.56637 7.28229 2.41009C7.4417 2.25381 7.6579 2.16602 7.88334 2.16602H11.2833C11.5088 2.16602 11.725 2.25381 11.8844 2.41009C12.0438 2.56637 12.1333 2.77834 12.1333 2.99935C12.1333 3.22036 12.0438 3.43232 11.8844 3.5886C11.725 3.74488 11.5088 3.83268 11.2833 3.83268H7.88334C7.6579 3.83268 7.4417 3.74488 7.28229 3.5886C7.12289 3.43232 7.03334 3.22036 7.03334 2.99935Z" fill="black"/>
</mask>
<g mask="url(#mask0_1_1126)">
<rect y="0.5" width="20" height="20" fill="#ABABAB"/>
</g>
</g>
<defs>
<clipPath id="clip0_1_1126">
<rect width="20" height="20" fill="white" transform="translate(0 0.5)"/>
</clipPath>
</defs>
</svg>
