<svg width="16" height="16" viewBox="0 0 16 16" fill="none" xmlns="http://www.w3.org/2000/svg">
<g id="instagram">
<path id="Vector" d="M10.1335 8.00065C10.1335 8.42258 10.0084 8.83504 9.77396 9.18587C9.53955 9.53669 9.20637 9.81013 8.81655 9.97159C8.42674 10.1331 7.9978 10.1753 7.58397 10.093C7.17014 10.0107 6.79002 9.8075 6.49167 9.50914C6.19332 9.21079 5.99014 8.83067 5.90782 8.41684C5.82551 8.00302 5.86775 7.57407 6.02922 7.18426C6.19069 6.79444 6.46412 6.46126 6.81495 6.22685C7.16577 5.99244 7.57823 5.86732 8.00016 5.86732C8.56542 5.86908 9.10702 6.0944 9.50671 6.4941C9.90641 6.8938 10.1317 7.4354 10.1335 8.00065ZM14.6668 5.06732V10.934C14.6668 11.9241 14.2735 12.8737 13.5734 13.5738C12.8732 14.274 11.9236 14.6673 10.9335 14.6673H5.06683C4.07669 14.6673 3.1271 14.274 2.42696 13.5738C1.72683 12.8737 1.3335 11.9241 1.3335 10.934V5.06732C1.3335 4.07718 1.72683 3.12759 2.42696 2.42745C3.1271 1.72732 4.07669 1.33398 5.06683 1.33398H10.9335C11.9236 1.33398 12.8732 1.72732 13.5734 2.42745C14.2735 3.12759 14.6668 4.07718 14.6668 5.06732ZM11.2002 8.00065C11.2002 7.36775 11.0125 6.74906 10.6609 6.22283C10.3092 5.69659 9.80947 5.28644 9.22475 5.04424C8.64003 4.80204 7.99661 4.73867 7.37587 4.86214C6.75513 4.98561 6.18495 5.29038 5.73742 5.73791C5.28989 6.18544 4.98512 6.75562 4.86165 7.37636C4.73818 7.9971 4.80155 8.64051 5.04375 9.22524C5.28595 9.80996 5.6961 10.3097 6.22234 10.6614C6.74857 11.013 7.36726 11.2007 8.00016 11.2007C8.84886 11.2007 9.66279 10.8635 10.2629 10.2634C10.863 9.66328 11.2002 8.84934 11.2002 8.00065ZM12.2668 4.53398C12.2668 4.37576 12.2199 4.22109 12.132 4.08953C12.0441 3.95797 11.9192 3.85543 11.773 3.79488C11.6268 3.73433 11.4659 3.71849 11.3108 3.74936C11.1556 3.78022 11.013 3.85642 10.9011 3.9683C10.7893 4.08018 10.7131 4.22273 10.6822 4.37791C10.6513 4.5331 10.6672 4.69395 10.7277 4.84013C10.7883 4.98631 10.8908 5.11125 11.0224 5.19916C11.1539 5.28707 11.3086 5.33398 11.4668 5.33398C11.679 5.33398 11.8825 5.2497 12.0325 5.09967C12.1825 4.94964 12.2668 4.74616 12.2668 4.53398Z" fill="black"/>
</g>
</svg>
