<svg width="14" height="14" viewBox="0 0 14 14" fill="none" xmlns="http://www.w3.org/2000/svg">
<g id="location-unfilled">
<path id="Vector" d="M7.00016 3.57976C6.55874 3.57976 6.12723 3.70953 5.76019 3.95265C5.39316 4.19577 5.1071 4.54134 4.93817 4.94563C4.76924 5.34993 4.72505 5.79481 4.81116 6.22402C4.89728 6.65322 5.10985 7.04747 5.42198 7.3569C5.73412 7.66634 6.1318 7.87707 6.56474 7.96245C6.99769 8.04782 7.44644 8.004 7.85427 7.83654C8.26209 7.66907 8.61066 7.38547 8.85591 7.02161C9.10115 6.65775 9.23205 6.22997 9.23205 5.79236C9.23071 5.20595 8.99513 4.64394 8.57686 4.22928C8.15859 3.81463 7.59168 3.58109 7.00016 3.57976ZM7.00016 6.79809C6.79952 6.79809 6.60337 6.7391 6.43654 6.62859C6.26971 6.51808 6.13968 6.36101 6.06289 6.17724C5.98611 5.99346 5.96602 5.79124 6.00516 5.59615C6.04431 5.40106 6.14093 5.22186 6.28281 5.0812C6.42469 4.94055 6.60545 4.84476 6.80225 4.80596C6.99904 4.76715 7.20302 4.78707 7.38839 4.86319C7.57377 4.93931 7.73221 5.06822 7.84368 5.23361C7.95516 5.399 8.01466 5.59345 8.01466 5.79236C8.01332 6.05869 7.90601 6.31373 7.71604 6.50206C7.52608 6.69038 7.26881 6.79677 7.00016 6.79809ZM7.00016 1.16602C5.7629 1.16735 4.57669 1.65519 3.70181 2.52251C2.82694 3.38983 2.33484 4.56579 2.3335 5.79236C2.3335 9.68452 6.4777 12.6011 6.65016 12.7218C6.75237 12.7939 6.87471 12.8327 7.00016 12.8327C7.12562 12.8327 7.24795 12.7939 7.35016 12.7218C8.13432 12.1501 8.85222 11.494 9.49074 10.7657C10.9161 9.14143 11.6668 7.42164 11.6668 5.79236C11.6655 4.56579 11.1734 3.38983 10.2985 2.52251C9.42363 1.65519 8.23743 1.16735 7.00016 1.16602ZM8.58784 9.95104C8.10454 10.5024 7.57327 11.0106 7.00016 11.4697C6.42706 11.0106 5.89579 10.5024 5.41248 9.95104C4.56538 8.98051 3.55089 7.4669 3.55089 5.79236C3.55089 4.88546 3.91429 4.0157 4.56116 3.37443C5.20802 2.73315 6.08536 2.37289 7.00016 2.37289C7.91497 2.37289 8.7923 2.73315 9.43917 3.37443C10.086 4.0157 10.4494 4.88546 10.4494 5.79236C10.4494 7.4669 9.44002 8.98051 8.58784 9.95104Z" fill="black"/>
</g>
</svg>
