<svg width="24" height="24" viewBox="0 0 24 24" fill="none" xmlns="http://www.w3.org/2000/svg">
<g id="Mail">
<path id="Vector" d="M12 16.25C11.3543 16.25 10.7086 16.0382 10.1578 15.609L2 9.26562V18.125C2 19.1602 2.83945 20 3.875 20H20.125C21.1605 20 22 19.1605 22 18.125V9.26562L13.8438 15.6133C13.293 16.0391 12.6445 16.25 12 16.25ZM2.63633 8.17578L10.9254 14.625C11.5578 15.1172 12.4437 15.1172 13.0762 14.625L21.3652 8.17578C21.7305 7.86328 22 7.38281 22 6.875C22 5.83945 21.1602 5 20.125 5H3.875C2.83945 5 2 5.83945 2 6.875C2 7.38281 2.23477 7.86328 2.63633 8.17578Z" fill="white"/>
</g>
</svg>
