<svg width="24" height="24" viewBox="0 0 24 24" fill="none" xmlns="http://www.w3.org/2000/svg">
<g clip-path="url(#clip0_1_945)">
<mask id="mask0_1_945" style="mask-type:alpha" maskUnits="userSpaceOnUse" x="0" y="0" width="24" height="24">
<path d="M8.99995 20.6244C8.77745 20.6244 8.55995 20.5584 8.37496 20.4348C8.18996 20.3111 8.04578 20.1355 7.96063 19.9299C7.87549 19.7243 7.85321 19.4981 7.89661 19.2799C7.94002 19.0617 8.04716 18.8612 8.20448 18.7039L14.9089 11.9994L8.20448 5.29485C7.99634 5.08329 7.88023 4.79806 7.88144 4.50128C7.88264 4.2045 8.00107 3.92022 8.21093 3.71036C8.42079 3.50051 8.70507 3.38208 9.00185 3.38087C9.29862 3.37966 9.58386 3.49577 9.79542 3.70391L17.2954 11.2039C17.5064 11.4149 17.6249 11.701 17.6249 11.9994C17.6249 12.2977 17.5064 12.5839 17.2954 12.7949L9.79542 20.2948C9.69107 20.3995 9.56708 20.4824 9.43057 20.539C9.29405 20.5955 9.14771 20.6246 8.99995 20.6244Z" fill="black"/>
</mask>
<g mask="url(#mask0_1_945)">
<rect width="24" height="24" fill="white"/>
</g>
</g>
<defs>
<clipPath id="clip0_1_945">
<rect width="24" height="24" fill="white"/>
</clipPath>
</defs>
</svg>
