<svg width="16" height="16" viewBox="0 0 16 16" fill="none" xmlns="http://www.w3.org/2000/svg">
<g id="twitter">
<path id="Vector" d="M14.5281 4.89141L12.6853 6.66814C12.3191 10.7942 8.71897 13.9993 4.41707 13.9993C3.53228 13.9993 2.80004 13.8636 2.24476 13.598C1.79932 13.3796 1.61626 13.1494 1.56744 13.0785C1.52705 13.0192 1.50103 12.9518 1.4913 12.8814C1.48158 12.8109 1.48841 12.7393 1.51128 12.6718C1.53416 12.6043 1.57249 12.5426 1.62341 12.4914C1.67434 12.4402 1.73655 12.4008 1.80542 12.3761C1.81762 12.3702 3.25769 11.8389 4.19129 10.8178C3.6123 10.419 3.1034 9.93267 2.6841 9.3775C1.84813 8.27958 0.963344 6.373 1.49422 3.52787C1.51091 3.44329 1.5509 3.36464 1.60997 3.30022C1.66904 3.2358 1.745 3.18802 1.82983 3.1619C1.91492 3.13495 2.00604 3.13115 2.09321 3.15093C2.18039 3.17072 2.26026 3.21331 2.32409 3.27405C2.34239 3.29767 4.37435 5.23377 6.85786 5.85946V5.49939C6.86026 5.12499 6.93887 4.7547 7.0892 4.40969C7.23953 4.06467 7.45864 3.75168 7.73402 3.48858C8.0094 3.22548 8.33566 3.01743 8.69416 2.8763C9.05266 2.73517 9.43639 2.66374 9.82343 2.66607C10.3314 2.67308 10.8289 2.80725 11.2673 3.05552C11.7057 3.30379 12.0702 3.65769 12.3252 4.08273H14.1802C14.2766 4.08244 14.3709 4.10975 14.4513 4.16122C14.5316 4.21269 14.5944 4.28602 14.6318 4.37197C14.667 4.45919 14.6759 4.55426 14.6575 4.64619C14.6392 4.73811 14.5943 4.82313 14.5281 4.89141Z" fill="black"/>
</g>
</svg>
